<?xml version="1.0" encoding="utf-8"?>
<!-- Generator: Adobe Illustrator 18.0.0, SVG Export Plug-In . SVG Version: 6.00 Build 0)  -->
<!DOCTYPE svg PUBLIC "-//W3C//DTD SVG 1.1//EN" "http://www.w3.org/Graphics/SVG/1.1/DTD/svg11.dtd">
<svg version="1.1" id="Слой_1" xmlns="http://www.w3.org/2000/svg" xmlns:xlink="http://www.w3.org/1999/xlink" x="0px" y="0px"
	 viewBox="41 0 854 768" enable-background="new 41 0 854 768" xml:space="preserve">
<path fill="none" stroke="#000000" stroke-width="2" stroke-linecap="round" stroke-linejoin="round" stroke-miterlimit="10" d="
	M411.1,5v205.2h179.8v116.8l7.2-4.1l4.2-5.7l4.1-4.9l9-4.9l6.5-3.3l4.9-8.2l4.1-4.1l7.3-6.5l7.3-3.3l5.7-2.4l4.9-13.9l7.3-0.8
	l4.1,0.8l6.3,4.1l5.4,2.4v-5.3l6-4.5l8.3-6.5l5.5-7.3l4.7-6.5v-8.6l6.5-6.9l4.7,4.1v4.8v7.1l7.9,3.6l10.7,4.9l14.7,4.1l13.5,1.6
	l2.9-3.3v-3.8l6.1-0.3v-7.8l5.1,1.3v-2.3l-3.8-8.1l8.8-0.1l7.4-2.4l7.3,3.3l5.7-2.4v-5.4l5.5-3.6l5-4.1l6.6-0.8l10.6,4.1l9.8,6.5
	l4.9,7.3l5.2,2.4l5.2,3.3v-6l8.9,3.5l5.6-1.6l4.8,2.4v5.8l-7.2-0.1l1.1,4.1v5.2l6.1-0.3v7.4l8.1-0.1v6.1v8.1l6.1,0.4v9.8v9.1v4.1
	v5.1v7.1c0,0,5.6,4.8,0.3,7.2s-8.4,9.2-8.4,9.2l-2.3,9h-10.8l-7.1-5.7l-72.5-62.9l-1.6,7.3l0.8,9.7l-0.8,6.5l3.3,3.3l-4.9,4.9
	l-6.5,8.1l-3.3,4.9l2.4,8.2l-5.7,4.9l5.7,6.5l-8.2,11.4l-9.8,9.8l-10.6,9.8l0.8,7.4l-5.7,6.6h-6.4l-11.5,14.8l-4.1-7L710,398
	l-9,21.2l-5.7,5.7l-18.7-20.4l-3.3,5l-4.9,9.1h-3.4l-2.4,6.5l-4.9,8.8l1.6,8.1l-4.1,5.7l-4.4,4.1l-6.2,10.6l-21.2,37.5l-30.2-9.8
	l-11.4-20.4l-17.9-8.2l-6.5,16.3l-3.3,5.7l1.6,8.2l-3.3,8.2l-3.3,4.2l-4.9,9.1h-3.4l-5.5,9l3.3,8.3l-3.3,5H531L516.4,549l-4.7,4.6
	v6.2v5.2v5.9l-4.9,5.5l-0.7,9.8l-7.3,4.9l-8.1,13l-14.7,15.5l-10.6,8.3l-5.7,9.1h5.1l-7.6,6.5l0.8,6.4l-4.1,3.2c0,0-4.1-5.7-3.3,0
	c0.8,5.7,2.4,11.4,2.4,11.4s4.9,2.4,7.3,4.1c2.4,1.6-0.8,8.1-0.8,8.1l-10.6,4.1l-4.1,3.5l3.3,7.6h4.4l-6.8,7.9l-13.9,7.5l-8.2,10
	h-6.7l-5.6-11l-4.8-0.9l-6.5,4.8l-18.7,13l-10.6,3.2l-6.5-5.7l-9.1-2.4l-4.2,4.1v4.1v9.1l-7.9,8.1h-17.5l-18.4,5.8l-16.3,8l-7.3-8.2
	l-11.4-6.6l-7.6-5.7l-6,6.5v5.2l-6.2,2.1l-8,2.4l-4.8,4.4l-7.3,5.3h-21.5l-5.4-6.2l-6.5-6.6l-6.5-1.7l-5.2-0.8l-6.8-5.7v-4.3
	l-7.3-3.8l-4.9-5.7v-14.8l-9.1-2.3v-5.8l4.6-4.7l5-3.7l-9.1-3.7h-10.7l-10.3-5.1h-6v-6.1l-4.9-5l-3.1-5.7l-4.8,0.8l-5.2-5.7
	l-8.4-2.4v-4.3v-6.1l-8.1-5.9v-7.3l-7-7.4l-5.6-7.3l-3.2-8.2l-4.2-8.2l-3.4,0.8v-5.4v-7.1l-4.8-6.3l-4.8-9l-4.8-8.2l-4.9-7.3
	l-6.5-7.3l-3.2-5.7h5.7l3.3-11.2l0.8-13.3v-15.1l-3.2-11.2h6.3l10.9-2l8.2-4.2c0,0,10.6-0.9,13-0.9c2.4,0,9-3.3,9-3.3l4.9-8.2
	l1.6-10.1l4.1-15h4.3l7.1,0.1l2.4-8.3l2.4-9.8l-0.8-11.4l-4.9-6.5l-0.8-8.2l5.7-4.1l4.9-6.5l1.6-7.3l1.6-8.2l5.7-5.2l4.9-12.7
	l6.5-6.5l9,0.8l0.8,6.5l4.9,1.6l4.9,10.3l1.6,5.2l-3.3,5.7l4.1,4.1l6.5-3.3l5.7-7.3l2.4-4.2l7.3,4.2l4.9-4.4l-4.9-7.8l1.6-9l-4.9-8
	l-1.6-6.4h7.7l4.5-6.5l-2.4-12.4l3.3-9l6.5-3.3l0.8-9l10.6-1.6l9-2.4l4.9-12.2l4.9-5.7l8.2-6.5l6.5-1.6c0,0,4.9,4.1,5.7,6.5
	s1.6,7.3,1.6,7.3l3.3,4.1l9-7.3l4.9-5.7l6.5-1.6l7.3-4.1l4.9-7.3l9.8-4.9l8.2-10.6l15.5-16.2l10.6-9.7h9.5l0.3-12.9l4.9-8.3l-4.9-9
	l5.7-9.8l1.6-9l6.5-7.3l-2.4-9l6.5-1.6l4.1-9.8l0.8-13l5.7-23.6l5.7-16.3l7.3-14.7l4.9-12.2l-3.3-12.2l2.4-20.4l-2.4-13.9l-5.7-9.8
	l-3.3-6.5l9-8.2l5.5,3.3L411.1,5z"/>
</svg>
