<?xml version="1.0" encoding="UTF-8"?>
<svg width="151px" height="28px" viewBox="0 0 151 28" version="1.1" xmlns="http://www.w3.org/2000/svg" xmlns:xlink="http://www.w3.org/1999/xlink">
    <!-- Generator: Sketch 52.4 (67378) - http://www.bohemiancoding.com/sketch -->
    <title>logo-mini</title>
    <desc>Created with Sketch.</desc>
    <g id="Page-1" stroke="none" stroke-width="1" fill="none" fill-rule="evenodd">
        <g id="Group-2" transform="translate(-58.000000, -18.000000)" fill-rule="nonzero">
            <g id="logo-(1)">
                <g id="creazilla" transform="translate(58.000000, 18.000000)">
                    <g id="path-5-link" fill="#000000">
                        <path d="M17.3644596,24.5522827 C17.3644596,25.7745811 14.6880223,27.9675282 10.4268524,27.9675282 C4.7922476,27.9675282 0.2141312,23.7973337 0.2141312,17.3982421 C0.2141312,12.0416992 3.7709755,7.9074547 9.7225268,7.9074547 C13.3850199,7.9074547 16.167106,9.4892526 17.4348921,11.6102998 C17.7518386,12.1495491 17.8222712,12.5090486 17.8222712,12.940448 C17.8222712,13.5875472 17.3996758,14.1627464 16.5192688,14.6660458 C15.7092944,15.1333951 14.1949944,15.6366945 12.3637478,15.8523942 C11.9059362,13.7672969 10.9903129,12.940448 9.616878,12.940448 C7.7856314,12.940448 6.6939267,14.5222459 6.6939267,17.3263422 C6.6939267,20.6696878 8.8421198,22.9345348 12.2933152,22.9345348 C13.8428316,22.9345348 15.4275642,22.5031354 16.4488363,21.8560363 C16.9066479,22.5390854 17.3644596,23.7973337 17.3644596,24.5522827 Z M20.3917364,26.4216802 L20.3917364,8.6264537 C21.6595225,8.3029042 23.1386062,8.0872044 25.1459342,8.0872044 C26.2728552,8.0872044 26.8715319,8.5905038 26.8715319,9.5252025 L26.8715319,10.9272507 C27.8575878,9.201653 29.653618,7.9074547 32.0131088,7.9074547 C34.0204368,7.9074547 35.4643042,8.7702535 35.4643042,9.8847021 C35.4643042,11.2508003 34.1613019,12.7247483 32.7174344,13.6234971 C32.0483251,13.1201978 31.1679181,12.940448 30.3931599,12.940448 C28.5619134,12.940448 27.2941273,14.2705963 26.8715319,16.4635434 L26.8715319,27.5361288 L21.729955,27.5361288 C20.8143318,27.5361288 20.3917364,27.1406793 20.3917364,26.4216802 Z M45.922216,27.9675282 C40.0763137,27.9675282 36.096874,23.6535339 36.096874,18.0093913 C36.096874,11.9697993 40.4284765,7.9074547 45.992649,7.9074547 C51.204658,7.9074547 54.338907,10.9991506 54.338907,15.2771949 C54.338907,16.3916435 54.092393,17.5779919 53.564149,18.5486406 C53.000688,19.5911892 52.190714,19.9147388 50.535549,19.9147388 L42.717535,19.9147388 C43.210563,22.1436359 44.971377,23.2940344 47.436516,23.2940344 C49.091681,23.2940344 50.71163,22.9345348 51.732902,22.3233856 C52.155498,22.9704848 52.578093,24.1208833 52.578093,24.8398823 C52.578093,25.9543308 50.042521,27.9675282 45.922216,27.9675282 Z M46.098298,12.5809485 C44.126186,12.5809485 42.8584,14.0189466 42.611886,16.2837936 L47.96476,16.2837936 C48.140842,15.960244 48.246491,15.4569447 48.246491,14.9176954 C48.246491,13.4437474 47.366084,12.5809485 46.098298,12.5809485 Z M63.141654,12.5090486 C61.451272,12.5090486 59.620026,12.940448 58.105726,13.695397 C57.612698,12.940448 57.4014,12.0776492 57.4014,11.3586501 C57.4014,9.8487521 60.923028,7.9074547 65.008117,7.9074547 C70.431424,7.9074547 73.21351,10.6037011 73.21351,15.7804943 L73.21351,21.3527369 C73.21351,22.3233856 73.600889,22.7547851 74.269998,22.7547851 L75.220838,22.7547851 C75.432136,23.4378342 75.573001,24.1568332 75.573001,24.9117822 C75.573001,26.2778804 73.988268,27.7877784 71.628777,27.7877784 C70.008828,27.7877784 68.424096,26.9968795 67.508473,25.4150816 C66.451984,27.0687794 64.726386,27.9675282 62.578193,27.9675282 C58.598754,27.9675282 55.992749,25.1993818 55.992749,21.6403365 C55.992749,17.8296416 58.950917,15.4928947 63.212086,15.4928947 C64.585521,15.4928947 65.958956,15.7085944 66.663282,16.0680939 L66.663282,15.0255453 C66.663282,13.5515972 65.747659,12.5090486 63.141654,12.5090486 Z M64.303791,23.3659343 C65.325063,23.3659343 66.311119,22.7547851 66.733714,21.3527369 L66.733714,19.3754895 C66.20547,19.1957398 65.465928,19.1238399 64.832035,19.1238399 C63.352952,19.1238399 62.472545,20.0944886 62.472545,21.4246368 C62.472545,22.6828852 63.317735,23.3659343 64.303791,23.3659343 Z M84.129233,13.3718475 L78.424196,13.3718475 C77.579005,13.3718475 77.121194,12.8685481 77.121194,11.8619495 C77.121194,10.6037011 77.262059,9.3095028 77.508573,8.3388541 L89.517324,8.3388541 C90.609029,8.3388541 91.172489,8.6624037 91.595085,9.4173527 C92.01768,10.1723017 92.369843,11.1789004 92.510708,12.1135991 L85.256154,22.3233856 L91.630301,22.3233856 C92.334627,22.3233856 92.722006,22.7547851 92.722006,23.6894838 L92.722006,27.5361288 L79.727198,27.5361288 C78.635494,27.5361288 78.072033,27.2125792 77.649438,26.4576302 C77.226843,25.7026812 76.87468,24.6960825 76.733815,23.7613837 L84.129233,13.3718475 Z M101.982564,9.5252025 L101.982564,21.3527369 C101.982564,22.3233856 102.369943,22.7547851 103.039053,22.7547851 L103.989892,22.7547851 C104.20119,23.4378342 104.342055,24.1568332 104.342055,24.9117822 C104.342055,26.2778804 102.757322,27.7877784 100.397832,27.7877784 C97.862259,27.7877784 95.502769,26.2778804 95.502769,22.5031354 L95.502769,8.6264537 C96.770555,8.3029042 98.249639,8.0872044 100.256966,8.0872044 C101.383887,8.0872044 101.982564,8.5905038 101.982564,9.5252025 Z M98.777883,6.4694566 C96.981852,6.4694566 95.291471,5.3550081 95.291471,3.3418107 C95.291471,1.3645633 96.735338,0.3220147 98.70745,0.3220147 C100.50348,0.3220147 102.193862,1.4364632 102.193862,3.4496606 C102.193862,5.426908 100.749994,6.4694566 98.777883,6.4694566 Z M106.559357,20.2023384 L106.559357,1.580263 C107.827143,1.2567135 109.306227,1.0410138 111.313555,1.0410138 C112.440476,1.0410138 113.039153,1.5443131 113.039153,2.4790119 L113.039153,20.0944886 C113.039153,21.8919862 113.708262,22.6109853 114.940832,22.6109853 C115.645158,22.6109853 116.419916,22.4671854 116.983376,22.2155358 C117.441188,22.8626349 117.793351,24.0489834 117.793351,25.055582 C117.793351,26.2419305 115.750806,27.7877784 112.792639,27.7877784 C108.954064,27.7877784 106.559357,25.1993818 106.559357,20.2023384 Z M119.059814,20.2023384 L119.059814,1.580263 C120.3276,1.2567135 121.806683,1.0410138 123.814011,1.0410138 C124.940932,1.0410138 125.539609,1.5443131 125.539609,2.4790119 L125.539609,20.0944886 C125.539609,21.8919862 126.208718,22.6109853 127.441288,22.6109853 C128.145614,22.6109853 128.920372,22.4671854 129.483832,22.2155358 C129.941644,22.8626349 130.293807,24.0489834 130.293807,25.055582 C130.293807,26.2419305 128.251263,27.7877784 125.293095,27.7877784 C121.454521,27.7877784 119.059814,25.1993818 119.059814,20.2023384 Z M138.392228,12.5090486 C136.701847,12.5090486 134.8706,12.940448 133.3563,13.695397 C132.863272,12.940448 132.651974,12.0776492 132.651974,11.3586501 C132.651974,9.8487521 136.173602,7.9074547 140.258691,7.9074547 C145.681998,7.9074547 148.464084,10.6037011 148.464084,15.7804943 L148.464084,21.3527369 C148.464084,22.3233856 148.851463,22.7547851 149.520572,22.7547851 L150.471412,22.7547851 C150.68271,23.4378342 150.823575,24.1568332 150.823575,24.9117822 C150.823575,26.2778804 149.238842,27.7877784 146.879351,27.7877784 C145.259403,27.7877784 143.67467,26.9968795 142.759047,25.4150816 C141.702558,27.0687794 139.976961,27.9675282 137.828768,27.9675282 C133.849328,27.9675282 131.243323,25.1993818 131.243323,21.6403365 C131.243323,17.8296416 134.201491,15.4928947 138.462661,15.4928947 C139.836095,15.4928947 141.20953,15.7085944 141.913856,16.0680939 L141.913856,15.0255453 C141.913856,13.5515972 140.998233,12.5090486 138.392228,12.5090486 Z M139.554365,23.3659343 C140.575637,23.3659343 141.561693,22.7547851 141.984289,21.3527369 L141.984289,19.3754895 C141.456044,19.1957398 140.716502,19.1238399 140.082609,19.1238399 C138.603526,19.1238399 137.723119,20.0944886 137.723119,21.4246368 C137.723119,22.6828852 138.568309,23.3659343 139.554365,23.3659343 Z" id="path-5"></path>
                    </g>
                    <g id="path-5-link" fill="#444444">
                        <path d="M17.3644596,24.5522827 C17.3644596,25.7745811 14.6880223,27.9675282 10.4268524,27.9675282 C4.7922476,27.9675282 0.2141312,23.7973337 0.2141312,17.3982421 C0.2141312,12.0416992 3.7709755,7.9074547 9.7225268,7.9074547 C13.3850199,7.9074547 16.167106,9.4892526 17.4348921,11.6102998 C17.7518386,12.1495491 17.8222712,12.5090486 17.8222712,12.940448 C17.8222712,13.5875472 17.3996758,14.1627464 16.5192688,14.6660458 C15.7092944,15.1333951 14.1949944,15.6366945 12.3637478,15.8523942 C11.9059362,13.7672969 10.9903129,12.940448 9.616878,12.940448 C7.7856314,12.940448 6.6939267,14.5222459 6.6939267,17.3263422 C6.6939267,20.6696878 8.8421198,22.9345348 12.2933152,22.9345348 C13.8428316,22.9345348 15.4275642,22.5031354 16.4488363,21.8560363 C16.9066479,22.5390854 17.3644596,23.7973337 17.3644596,24.5522827 Z M20.3917364,26.4216802 L20.3917364,8.6264537 C21.6595225,8.3029042 23.1386062,8.0872044 25.1459342,8.0872044 C26.2728552,8.0872044 26.8715319,8.5905038 26.8715319,9.5252025 L26.8715319,10.9272507 C27.8575878,9.201653 29.653618,7.9074547 32.0131088,7.9074547 C34.0204368,7.9074547 35.4643042,8.7702535 35.4643042,9.8847021 C35.4643042,11.2508003 34.1613019,12.7247483 32.7174344,13.6234971 C32.0483251,13.1201978 31.1679181,12.940448 30.3931599,12.940448 C28.5619134,12.940448 27.2941273,14.2705963 26.8715319,16.4635434 L26.8715319,27.5361288 L21.729955,27.5361288 C20.8143318,27.5361288 20.3917364,27.1406793 20.3917364,26.4216802 Z M45.922216,27.9675282 C40.0763137,27.9675282 36.096874,23.6535339 36.096874,18.0093913 C36.096874,11.9697993 40.4284765,7.9074547 45.992649,7.9074547 C51.204658,7.9074547 54.338907,10.9991506 54.338907,15.2771949 C54.338907,16.3916435 54.092393,17.5779919 53.564149,18.5486406 C53.000688,19.5911892 52.190714,19.9147388 50.535549,19.9147388 L42.717535,19.9147388 C43.210563,22.1436359 44.971377,23.2940344 47.436516,23.2940344 C49.091681,23.2940344 50.71163,22.9345348 51.732902,22.3233856 C52.155498,22.9704848 52.578093,24.1208833 52.578093,24.8398823 C52.578093,25.9543308 50.042521,27.9675282 45.922216,27.9675282 Z M46.098298,12.5809485 C44.126186,12.5809485 42.8584,14.0189466 42.611886,16.2837936 L47.96476,16.2837936 C48.140842,15.960244 48.246491,15.4569447 48.246491,14.9176954 C48.246491,13.4437474 47.366084,12.5809485 46.098298,12.5809485 Z M63.141654,12.5090486 C61.451272,12.5090486 59.620026,12.940448 58.105726,13.695397 C57.612698,12.940448 57.4014,12.0776492 57.4014,11.3586501 C57.4014,9.8487521 60.923028,7.9074547 65.008117,7.9074547 C70.431424,7.9074547 73.21351,10.6037011 73.21351,15.7804943 L73.21351,21.3527369 C73.21351,22.3233856 73.600889,22.7547851 74.269998,22.7547851 L75.220838,22.7547851 C75.432136,23.4378342 75.573001,24.1568332 75.573001,24.9117822 C75.573001,26.2778804 73.988268,27.7877784 71.628777,27.7877784 C70.008828,27.7877784 68.424096,26.9968795 67.508473,25.4150816 C66.451984,27.0687794 64.726386,27.9675282 62.578193,27.9675282 C58.598754,27.9675282 55.992749,25.1993818 55.992749,21.6403365 C55.992749,17.8296416 58.950917,15.4928947 63.212086,15.4928947 C64.585521,15.4928947 65.958956,15.7085944 66.663282,16.0680939 L66.663282,15.0255453 C66.663282,13.5515972 65.747659,12.5090486 63.141654,12.5090486 Z M64.303791,23.3659343 C65.325063,23.3659343 66.311119,22.7547851 66.733714,21.3527369 L66.733714,19.3754895 C66.20547,19.1957398 65.465928,19.1238399 64.832035,19.1238399 C63.352952,19.1238399 62.472545,20.0944886 62.472545,21.4246368 C62.472545,22.6828852 63.317735,23.3659343 64.303791,23.3659343 Z M84.129233,13.3718475 L78.424196,13.3718475 C77.579005,13.3718475 77.121194,12.8685481 77.121194,11.8619495 C77.121194,10.6037011 77.262059,9.3095028 77.508573,8.3388541 L89.517324,8.3388541 C90.609029,8.3388541 91.172489,8.6624037 91.595085,9.4173527 C92.01768,10.1723017 92.369843,11.1789004 92.510708,12.1135991 L85.256154,22.3233856 L91.630301,22.3233856 C92.334627,22.3233856 92.722006,22.7547851 92.722006,23.6894838 L92.722006,27.5361288 L79.727198,27.5361288 C78.635494,27.5361288 78.072033,27.2125792 77.649438,26.4576302 C77.226843,25.7026812 76.87468,24.6960825 76.733815,23.7613837 L84.129233,13.3718475 Z M101.982564,9.5252025 L101.982564,21.3527369 C101.982564,22.3233856 102.369943,22.7547851 103.039053,22.7547851 L103.989892,22.7547851 C104.20119,23.4378342 104.342055,24.1568332 104.342055,24.9117822 C104.342055,26.2778804 102.757322,27.7877784 100.397832,27.7877784 C97.862259,27.7877784 95.502769,26.2778804 95.502769,22.5031354 L95.502769,8.6264537 C96.770555,8.3029042 98.249639,8.0872044 100.256966,8.0872044 C101.383887,8.0872044 101.982564,8.5905038 101.982564,9.5252025 Z M98.777883,6.4694566 C96.981852,6.4694566 95.291471,5.3550081 95.291471,3.3418107 C95.291471,1.3645633 96.735338,0.3220147 98.70745,0.3220147 C100.50348,0.3220147 102.193862,1.4364632 102.193862,3.4496606 C102.193862,5.426908 100.749994,6.4694566 98.777883,6.4694566 Z M106.559357,20.2023384 L106.559357,1.580263 C107.827143,1.2567135 109.306227,1.0410138 111.313555,1.0410138 C112.440476,1.0410138 113.039153,1.5443131 113.039153,2.4790119 L113.039153,20.0944886 C113.039153,21.8919862 113.708262,22.6109853 114.940832,22.6109853 C115.645158,22.6109853 116.419916,22.4671854 116.983376,22.2155358 C117.441188,22.8626349 117.793351,24.0489834 117.793351,25.055582 C117.793351,26.2419305 115.750806,27.7877784 112.792639,27.7877784 C108.954064,27.7877784 106.559357,25.1993818 106.559357,20.2023384 Z M119.059814,20.2023384 L119.059814,1.580263 C120.3276,1.2567135 121.806683,1.0410138 123.814011,1.0410138 C124.940932,1.0410138 125.539609,1.5443131 125.539609,2.4790119 L125.539609,20.0944886 C125.539609,21.8919862 126.208718,22.6109853 127.441288,22.6109853 C128.145614,22.6109853 128.920372,22.4671854 129.483832,22.2155358 C129.941644,22.8626349 130.293807,24.0489834 130.293807,25.055582 C130.293807,26.2419305 128.251263,27.7877784 125.293095,27.7877784 C121.454521,27.7877784 119.059814,25.1993818 119.059814,20.2023384 Z M138.392228,12.5090486 C136.701847,12.5090486 134.8706,12.940448 133.3563,13.695397 C132.863272,12.940448 132.651974,12.0776492 132.651974,11.3586501 C132.651974,9.8487521 136.173602,7.9074547 140.258691,7.9074547 C145.681998,7.9074547 148.464084,10.6037011 148.464084,15.7804943 L148.464084,21.3527369 C148.464084,22.3233856 148.851463,22.7547851 149.520572,22.7547851 L150.471412,22.7547851 C150.68271,23.4378342 150.823575,24.1568332 150.823575,24.9117822 C150.823575,26.2778804 149.238842,27.7877784 146.879351,27.7877784 C145.259403,27.7877784 143.67467,26.9968795 142.759047,25.4150816 C141.702558,27.0687794 139.976961,27.9675282 137.828768,27.9675282 C133.849328,27.9675282 131.243323,25.1993818 131.243323,21.6403365 C131.243323,17.8296416 134.201491,15.4928947 138.462661,15.4928947 C139.836095,15.4928947 141.20953,15.7085944 141.913856,16.0680939 L141.913856,15.0255453 C141.913856,13.5515972 140.998233,12.5090486 138.392228,12.5090486 Z M139.554365,23.3659343 C140.575637,23.3659343 141.561693,22.7547851 141.984289,21.3527369 L141.984289,19.3754895 C141.456044,19.1957398 140.716502,19.1238399 140.082609,19.1238399 C138.603526,19.1238399 137.723119,20.0944886 137.723119,21.4246368 C137.723119,22.6828852 138.568309,23.3659343 139.554365,23.3659343 Z" id="path-5"></path>
                    </g>
                </g>
            </g>
        </g>
    </g>
</svg>