<svg xmlns="http://www.w3.org/2000/svg" xmlns:xlink="http://www.w3.org/1999/xlink" width="210" height="50" viewBox="0 0 210 50">
    <defs>
        <radialGradient id="b" cx="49.969%" cy="50.038%" r="51.763%" fx="49.969%" fy="50.038%" gradientTransform="matrix(.9199 0 0 1 .04 0)">
            <stop offset="0%" stop-color="#568F18"/>
            <stop offset="100%" stop-color="#7CD21F"/>
        </radialGradient>
        <ellipse id="a" cx="27.24" cy="24.561" rx="26.7" ry="24.561"/>
        <linearGradient id="d" x1="38.355%" x2="26.94%" y1="100%" y2="16.162%">
            <stop offset="0%" stop-color="#FFF"/>
            <stop offset="100%"/>
        </linearGradient>
        <path id="e" d="M75.364 42.552c0 1.223-2.676 3.416-6.937 3.416-5.635 0-10.213-4.17-10.213-10.57 0-5.356 3.557-9.49 9.509-9.49 3.662 0 6.444 1.581 7.712 3.702.317.54.387.899.387 1.33 0 .648-.422 1.223-1.303 1.726-.81.467-2.324.97-4.155 1.186-.458-2.085-1.374-2.912-2.747-2.912-1.831 0-2.923 1.582-2.923 4.386 0 3.344 2.148 5.609 5.6 5.609 1.549 0 3.134-.432 4.155-1.079.458.683.915 1.941.915 2.696zm3.028 1.87V26.626c1.268-.323 2.747-.539 4.754-.539 1.127 0 1.726.504 1.726 1.438v1.402c.986-1.725 2.782-3.02 5.141-3.02 2.007 0 3.451.863 3.451 1.978 0 1.366-1.303 2.84-2.747 3.738-.669-.503-1.55-.683-2.324-.683-1.831 0-3.099 1.33-3.521 3.524v11.072H79.73c-.916 0-1.338-.395-1.338-1.114zm25.53 1.546c-5.846 0-9.825-4.314-9.825-9.959 0-6.04 4.331-10.102 9.896-10.102 5.212 0 8.346 3.092 8.346 7.37 0 1.115-.247 2.301-.775 3.272-.563 1.042-1.373 1.366-3.028 1.366h-7.818c.493 2.229 2.253 3.379 4.719 3.379 1.655 0 3.275-.36 4.296-.97.422.646.845 1.797.845 2.516 0 1.114-2.535 3.128-6.656 3.128zm.176-15.387c-1.972 0-3.24 1.438-3.486 3.703h5.353c.176-.324.281-.827.281-1.366 0-1.474-.88-2.337-2.148-2.337zm17.044-.072c-1.69 0-3.522.431-5.036 1.186a4.375 4.375 0 0 1-.705-2.336c0-1.51 3.522-3.452 7.607-3.452 5.423 0 8.206 2.697 8.206 7.873v5.573c0 .97.387 1.402 1.056 1.402h.95c.212.683.353 1.402.353 2.157 0 1.366-1.585 2.876-3.944 2.876-1.62 0-3.205-.791-4.12-2.373-1.057 1.654-2.783 2.553-4.93 2.553-3.98 0-6.586-2.769-6.586-6.328 0-3.81 2.958-6.147 7.22-6.147 1.373 0 2.746.216 3.45.575v-1.042c0-1.474-.915-2.517-3.521-2.517zm1.162 10.857c1.021 0 2.007-.611 2.43-2.013v-1.978c-.529-.18-1.268-.251-1.902-.251-1.479 0-2.36.97-2.36 2.3 0 1.259.846 1.942 1.832 1.942zm19.825-9.994h-5.705c-.845 0-1.303-.503-1.303-1.51 0-1.258.141-2.552.388-3.523h12.008c1.092 0 1.655.323 2.078 1.078.423.755.775 1.762.916 2.697l-7.255 10.21h6.374c.705 0 1.092.43 1.092 1.365v3.847h-12.995c-1.092 0-1.655-.323-2.078-1.078a8.384 8.384 0 0 1-.915-2.697l7.395-10.39zm17.854-3.847v11.828c0 .97.387 1.402 1.056 1.402h.95c.212.683.353 1.402.353 2.157 0 1.366-1.585 2.876-3.944 2.876-2.536 0-4.895-1.51-4.895-5.285V26.626c1.268-.323 2.747-.539 4.754-.539 1.127 0 1.726.504 1.726 1.438zm-3.205-3.056c-1.796 0-3.487-1.114-3.487-3.127 0-1.977 1.444-3.02 3.416-3.02 1.796 0 3.487 1.114 3.487 3.128 0 1.977-1.444 3.02-3.416 3.02zm7.781 13.733V19.58c1.268-.323 2.747-.539 4.755-.539 1.126 0 1.725.503 1.725 1.438v17.615c0 1.798.67 2.517 1.902 2.517.704 0 1.479-.144 2.042-.395.458.647.81 1.833.81 2.84 0 1.186-2.042 2.732-5 2.732-3.839 0-6.234-2.589-6.234-7.586zm12.5 0V19.58c1.269-.323 2.748-.539 4.755-.539 1.127 0 1.726.503 1.726 1.438v17.615c0 1.798.669 2.517 1.901 2.517.705 0 1.48-.144 2.043-.395.458.647.81 1.833.81 2.84 0 1.186-2.043 2.732-5 2.732-3.84 0-6.234-2.589-6.234-7.586zm19.333-7.693c-1.69 0-3.521.431-5.036 1.186a4.375 4.375 0 0 1-.704-2.336c0-1.51 3.522-3.452 7.607-3.452 5.423 0 8.205 2.697 8.205 7.873v5.573c0 .97.387 1.402 1.057 1.402h.95c.212.683.353 1.402.353 2.157 0 1.366-1.585 2.876-3.945 2.876-1.62 0-3.204-.791-4.12-2.373-1.056 1.654-2.782 2.553-4.93 2.553-3.98 0-6.586-2.769-6.586-6.328 0-3.81 2.958-6.147 7.22-6.147 1.373 0 2.747.216 3.45.575v-1.042c0-1.474-.915-2.517-3.52-2.517zm1.162 10.857c1.022 0 2.008-.611 2.43-2.013v-1.978c-.528-.18-1.267-.251-1.901-.251-1.48 0-2.36.97-2.36 2.3 0 1.259.845 1.942 1.831 1.942z"/>
    </defs>
    <g fill="none" fill-rule="evenodd">
        <mask id="c" fill="#fff">
            <use xlink:href="#a"/>
        </mask>
        <use fill="url(#b)" xlink:href="#a"/>
        <ellipse cx="16.68" cy="27.317" fill="#319C02" mask="url(#c)" opacity=".3" rx="21.36" ry="19.661"/>
        <ellipse cx="22.74" cy="26.46" fill="#319C02" mask="url(#c)" opacity=".3" rx="24.66" ry="22.724"/>
        <ellipse cx="7.86" cy="29.094" fill="#319C02" mask="url(#c)" opacity=".3" rx="17.7" ry="16.293"/>
        <path fill="#EBFF8B" d="M32.28 25.48c-3 0-5.46-2.756-5.46-6.125 0-2.328 1.14-4.349 2.88-5.39a8.18 8.18 0 0 0-2.76-.49c-4.14 0-7.56 3.307-7.56 7.35 0 1.593.54 3.124 1.44 4.288-1.8-.123-3.6-1.226-4.8-3.124-.96-1.593-1.32-3.43-1.02-5.145-.12.061-.18.122-.3.183-3.24 2.206-4.2 6.554-2.1 9.74a6.595 6.595 0 0 0 4.86 2.94c-1.68 1.53-4.38 1.776-6.78.428-1.62-.919-2.82-2.328-3.36-3.92-.06.122-.12.184-.18.306-1.56 3.491-.3 7.779 3.06 9.494 3.36 1.715 7.44.184 9.18-3.369.48-1.041.72-2.082.78-3.123.78-.184 1.5-.552 2.16-.98.48-.307.9-.735 1.26-1.103 1.02.49 2.16.796 3.42.796 2.34 0 4.44-1.041 5.82-2.695-.18-.061-.36-.061-.54-.061z" mask="url(#c)" opacity=".4"/>
        <path fill="#FFF" d="M41.4 32.401c-2.46-7.166-8.76-12.25-16.14-12.25-9.54 0-17.28 8.514-17.28 18.988 0 1.225.12 2.389.3 3.491 4.32 3.736 7.68 7.227 16.14 7.227 6.96 0 8.58.674 15.36-2.94 2.28-1.224.48.49.9-.55-.48.06-.84.183-1.32.122-5.7-.551-10.08-5.513-10.74-11.576.6.122 1.2.183 1.8.245 4.32.428 8.28-.368 10.92-1.96.18-.123.12-.062.3-.184" mask="url(#c)"/>
        <path fill="url(#d)" fill-rule="nonzero" d="M28.68 37.179s-3.72-.49-5.52-1.409c-1.8-.919-3.6-2.021-3.6-2.021s-1.44 10.78.06 13.413c1.5 2.634 9.66 2.94 12.78 2.328 3.84-.735 7.8-2.695 7.8-2.695s-6.9-.061-11.52-9.616z" mask="url(#c)" opacity=".1"/>
        <path fill="#000" fill-rule="nonzero" d="M33.9 20.029c-.84 0-1.56.857-1.92 2.082-.42-1.286-1.2-2.143-2.16-2.143-1.32 0-2.4 1.776-2.4 3.98 0 2.206 1.08 3.982 2.4 3.982.96 0 1.8-.919 2.16-2.266.36 1.163 1.08 1.96 1.86 1.96 1.2 0 2.1-1.654 2.1-3.736 0-2.083-.9-3.86-2.04-3.86z"/>
        <path fill="#FFF" d="M30.318 21.805c-.494 0-.918.721-.918 1.586 0 .865.424 1.586.918 1.586.494 0 .918-.72.918-1.586 0-.865-.424-1.586-.918-1.586zm4.344 0c-.495 0-.918.721-.918 1.586 0 .865.423 1.586.918 1.586.494 0 .918-.72.918-1.586 0-.865-.424-1.586-.918-1.586zM40.5 34.851l-3.06.735s2.22 3.798 2.82 2.879c.6-.919.24-3.614.24-3.614zm-6.36 5.819c.78-.735 1.2-3.43 1.2-3.43l-3.12.122c0-.06 1.14 4.043 1.92 3.308z"/>
        <path fill="#D83F0A" d="M42.24 35.403l-.6-2.206c-10.32 4.104-20.4-.06-21.48-.49.6-1.102 1.02-2.02 1.02-2.02l-1.68-.98-2.52 5.573s.72.551.84.674c.48-.245 1.14-1.164 1.74-2.144.78.674 4.56 3.675 12 3.675 5.88 0 10.68-2.082 10.68-2.082z"/>
        <g>
            <use fill="#000" xlink:href="#e"/>
            <use fill="#444" xlink:href="#e"/>
        </g>
    </g>
</svg>
