<?xml version="1.0" encoding="UTF-8"?>
<svg width="54px" height="50px" viewBox="0 0 54 50" version="1.1" xmlns="http://www.w3.org/2000/svg" xmlns:xlink="http://www.w3.org/1999/xlink">
    <!-- Generator: Sketch 52.5 (67469) - http://www.bohemiancoding.com/sketch -->
    <title>logo-sym</title>
    <desc>Created with Sketch.</desc>
    <defs>
        <radialGradient cx="49.9664831%" cy="50.038%" fx="49.9664831%" fy="50.038%" r="51.4261264%" gradientTransform="translate(0.499665,0.500380),scale(0.925926,1.000000),translate(-0.499665,-0.500380)" id="radialGradient-1">
            <stop stop-color="#568F18" offset="0%"></stop>
            <stop stop-color="#7CD21F" offset="100%"></stop>
        </radialGradient>
        <radialGradient cx="49.9664831%" cy="50.038%" fx="49.9664831%" fy="50.038%" r="51.7636955%" gradientTransform="translate(0.499665,0.500380),scale(0.919888,1.000000),translate(-0.499665,-0.500380)" id="radialGradient-2">
            <stop stop-color="#568F18" offset="0%"></stop>
            <stop stop-color="#7CD21F" offset="100%"></stop>
        </radialGradient>
        <ellipse id="path-3" cx="27.24" cy="24.561" rx="26.7" ry="24.561"></ellipse>
        <ellipse id="path-5" cx="27.24" cy="24.561" rx="26.7" ry="24.561"></ellipse>
        <ellipse id="path-7" cx="27.24" cy="24.561" rx="26.7" ry="24.561"></ellipse>
        <ellipse id="path-9" cx="27.24" cy="24.561" rx="26.7" ry="24.561"></ellipse>
        <ellipse id="path-11" cx="27.24" cy="24.561" rx="26.7" ry="24.561"></ellipse>
        <ellipse id="path-13" cx="27.24" cy="24.561" rx="26.7" ry="24.561"></ellipse>
        <linearGradient x1="38.355%" y1="100%" x2="26.94%" y2="16.162%" id="linearGradient-15">
            <stop stop-color="#FFFFFF" offset="0%"></stop>
            <stop stop-color="#000000" offset="100%"></stop>
        </linearGradient>
    </defs>
    <g id="Page-1" stroke="none" stroke-width="1" fill="none" fill-rule="evenodd">
        <g id="logo">
            <g id="a-link" fill="url(#radialGradient-2)">
                <ellipse id="a" cx="27.24" cy="24.561" rx="26.7" ry="24.561"></ellipse>
            </g>
            <g id="Clipped">
                <mask id="mask-4" fill="white">
                    <use xlink:href="#path-3"></use>
                </mask>
                <g id="a"></g>
                <ellipse id="Oval" fill="#319C02" opacity="0.3" mask="url(#mask-4)" cx="16.68" cy="27.317" rx="21.36" ry="19.661"></ellipse>
            </g>
            <g id="Clipped">
                <mask id="mask-6" fill="white">
                    <use xlink:href="#path-5"></use>
                </mask>
                <g id="a"></g>
                <ellipse id="Oval" fill="#319C02" opacity="0.3" mask="url(#mask-6)" cx="22.74" cy="26.46" rx="24.66" ry="22.724"></ellipse>
            </g>
            <g id="Clipped">
                <mask id="mask-8" fill="white">
                    <use xlink:href="#path-7"></use>
                </mask>
                <g id="a"></g>
                <ellipse id="Oval" fill="#319C02" opacity="0.3" mask="url(#mask-8)" cx="7.86" cy="29.094" rx="17.7" ry="16.293"></ellipse>
            </g>
            <g id="Clipped">
                <mask id="mask-10" fill="white">
                    <use xlink:href="#path-9"></use>
                </mask>
                <g id="a"></g>
                <path d="M32.28,25.48 C29.28,25.48 26.82,22.724 26.82,19.355 C26.82,17.027 27.96,15.006 29.7,13.965 C28.8150477,13.6440743 27.881341,13.4783075 26.94,13.475 C22.8,13.475 19.38,16.782 19.38,20.825 C19.38,22.418 19.92,23.949 20.82,25.113 C19.02,24.99 17.22,23.887 16.02,21.989 C15.06,20.396 14.7,18.559 15,16.844 C14.88,16.905 14.82,16.966 14.7,17.027 C11.46,19.233 10.5,23.581 12.6,26.767 C13.6933576,28.4301611 15.479355,29.5105793 17.46,29.707 C15.78,31.237 13.08,31.483 10.68,30.135 C9.06,29.216 7.86,27.807 7.32,26.215 C7.26,26.337 7.2,26.399 7.14,26.521 C5.58,30.012 6.84,34.3 10.2,36.015 C13.56,37.73 17.64,36.199 19.38,32.646 C19.86,31.605 20.1,30.564 20.16,29.523 C20.94,29.339 21.66,28.971 22.32,28.543 C22.8,28.236 23.22,27.808 23.58,27.44 C24.6,27.93 25.74,28.236 27,28.236 C29.34,28.236 31.44,27.195 32.82,25.541 C32.64,25.48 32.46,25.48 32.28,25.48 Z" id="Path" fill="#EBFF8B" opacity="0.4" mask="url(#mask-10)"></path>
            </g>
            <g id="Clipped">
                <mask id="mask-12" fill="white">
                    <use xlink:href="#path-11"></use>
                </mask>
                <g id="a"></g>
                <path d="M41.4,32.401 C38.94,25.235 32.64,20.151 25.26,20.151 C15.72,20.151 7.98,28.665 7.98,39.139 C7.98,40.364 8.1,41.528 8.28,42.63 C12.6,46.366 15.96,49.857 24.42,49.857 C31.38,49.857 33,50.531 39.78,46.917 C42.06,45.693 40.26,47.407 40.68,46.367 C40.2,46.427 39.84,46.55 39.36,46.489 C33.66,45.938 29.28,40.976 28.62,34.913 C29.22,35.035 29.82,35.096 30.42,35.158 C34.74,35.586 38.7,34.79 41.34,33.198 C41.52,33.075 41.46,33.136 41.64,33.014" id="Path" fill="#FFFFFF" mask="url(#mask-12)"></path>
            </g>
            <g id="Clipped">
                <mask id="mask-14" fill="white">
                    <use xlink:href="#path-13"></use>
                </mask>
                <g id="a"></g>
                <path d="M28.68,37.179 C28.68,37.179 24.96,36.689 23.16,35.77 C21.36,34.851 19.56,33.749 19.56,33.749 C19.56,33.749 18.12,44.529 19.62,47.162 C21.12,49.796 29.28,50.102 32.4,49.49 C36.24,48.755 40.2,46.795 40.2,46.795 C40.2,46.795 33.3,46.734 28.68,37.179 Z" id="Path" fill="url(#linearGradient-15)" opacity="0.1" mask="url(#mask-14)"></path>
            </g>
            <path d="M33.9,20.029 C33.06,20.029 32.34,20.886 31.98,22.111 C31.56,20.825 30.78,19.968 29.82,19.968 C28.5,19.968 27.42,21.744 27.42,23.948 C27.42,26.154 28.5,27.93 29.82,27.93 C30.78,27.93 31.62,27.011 31.98,25.664 C32.34,26.827 33.06,27.624 33.84,27.624 C35.04,27.624 35.94,25.97 35.94,23.888 C35.94,21.805 35.04,20.028 33.9,20.028 L33.9,20.029 Z" id="Path" fill="#000000"></path>
            <path d="M30.318,21.805 C29.824,21.805 29.4,22.526 29.4,23.391 C29.4,24.256 29.824,24.977 30.318,24.977 C30.812,24.977 31.236,24.257 31.236,23.391 C31.236,22.526 30.812,21.805 30.318,21.805 Z M34.662,21.805 C34.167,21.805 33.744,22.526 33.744,23.391 C33.744,24.256 34.167,24.977 34.662,24.977 C35.156,24.977 35.58,24.257 35.58,23.391 C35.58,22.526 35.156,21.805 34.662,21.805 Z M40.5,34.851 L37.44,35.586 C37.44,35.586 39.66,39.384 40.26,38.465 C40.86,37.546 40.5,34.851 40.5,34.851 Z M34.14,40.67 C34.92,39.935 35.34,37.24 35.34,37.24 L32.22,37.362 C32.22,37.302 33.36,41.405 34.14,40.67 Z" id="Shape" fill="#FFFFFF" fill-rule="nonzero"></path>
            <path d="M42.24,35.403 L41.64,33.197 C31.32,37.301 21.24,33.137 20.16,32.707 C20.76,31.605 21.18,30.687 21.18,30.687 L19.5,29.707 L16.98,35.28 C16.98,35.28 17.7,35.831 17.82,35.954 C18.3,35.709 18.96,34.79 19.56,33.81 C20.34,34.484 24.12,37.485 31.56,37.485 C37.44,37.485 42.24,35.403 42.24,35.403 Z" id="Path" fill="#D83F0A"></path>
        </g>
    </g>
</svg>